<?xml version="1.0" standalone="no"?>
<!DOCTYPE svg PUBLIC "-//W3C//DTD SVG 20010904//EN"
 "http://www.w3.org/TR/2001/REC-SVG-20010904/DTD/svg10.dtd">
<svg version="1.0" xmlns="http://www.w3.org/2000/svg"
 width="1146.000000pt" height="1010.000000pt" viewBox="0 0 1146.000000 1010.000000"
 preserveAspectRatio="xMidYMid meet">

<g transform="translate(0.000000,1010.000000) scale(0.100000,-0.100000)"
fill="#000000" stroke="none">
<path d="M341 9849 c-32 -13 -89 -75 -107 -116 -12 -28 -14 -512 -14 -3289 l0
-3257 24 -51 c16 -32 39 -60 62 -76 l38 -25 5370 0 5371 0 37 25 c22 15 48 46
63 75 l25 50 0 3260 c-1 2521 -4 3266 -13 3286 -19 43 -74 99 -112 115 -30 12
-749 14 -5377 13 -3456 0 -5352 -4 -5367 -10z m5189 -3344 l0 -3095 -24 0
c-13 0 -27 -6 -30 -12 -5 -10 -7 -10 -12 0 -8 18 -4470 18 -4477 0 -4 -10 -8
-10 -14 -2 -4 6 -33 14 -63 17 -86 9 -137 23 -155 41 -9 9 -23 16 -30 16 -8 0
-30 13 -48 30 -19 16 -39 30 -44 30 -5 0 -14 12 -21 28 -6 15 -23 45 -36 67
-14 22 -35 72 -48 110 l-23 70 0 2715 c0 2268 2 2721 14 2750 63 163 76 186
118 218 23 18 46 32 52 32 5 0 11 6 14 13 3 7 24 19 48 26 24 8 62 19 84 26
32 11 487 14 2368 14 l2327 1 0 -3095z m2520 2380 c0 -37 -4 -65 -10 -65 -7 0
-10 -185 -10 -535 0 -469 2 -535 15 -535 10 0 15 11 15 35 0 19 4 35 8 35 12
0 24 46 67 245 19 94 42 193 49 220 8 28 22 86 31 130 27 129 56 266 70 325 7
30 16 74 20 98 4 23 11 42 15 42 5 0 12 16 16 35 l6 35 600 0 c567 0 600 -1
593 -17 -3 -10 -9 -30 -12 -45 -3 -16 -9 -28 -13 -28 -4 0 -11 -17 -15 -37 -3
-21 -21 -101 -40 -178 -18 -77 -42 -180 -54 -230 -28 -120 -44 -179 -51 -185
-4 -3 -15 -43 -25 -90 -10 -47 -22 -87 -25 -90 -10 -7 -56 -195 -120 -480 -18
-80 -35 -147 -39 -150 -8 -5 -55 -188 -66 -257 -4 -24 -10 -43 -14 -43 -8 0
-26 -78 -61 -269 -12 -62 -25 -123 -29 -135 -5 -11 -4 -34 0 -51 9 -29 32
-146 65 -320 9 -49 20 -92 24 -95 9 -6 37 -106 56 -205 8 -38 18 -71 23 -75 5
-3 14 -32 21 -65 6 -33 18 -80 25 -105 7 -25 35 -133 60 -240 26 -107 50 -197
55 -200 4 -3 15 -41 25 -85 9 -44 21 -82 25 -85 4 -3 12 -27 17 -55 33 -156
137 -570 144 -573 4 -2 13 -25 20 -53 7 -27 16 -49 20 -49 3 0 9 -21 13 -47 5
-38 72 -320 92 -385 5 -17 -29 -18 -609 -18 l-615 0 -7 40 c-4 22 -11 40 -16
40 -5 0 -9 9 -9 20 0 11 -11 66 -25 123 -13 56 -29 136 -36 177 -6 41 -15 77
-19 80 -9 6 -40 133 -75 300 -14 69 -37 172 -50 230 -14 58 -39 173 -56 255
-17 83 -35 166 -39 185 -4 19 -11 50 -15 68 -4 17 -11 32 -16 32 -4 0 -10 17
-12 38 -2 20 -4 -329 -5 -775 l-2 -813 -580 0 -580 0 0 2470 0 2470 580 0 580
0 0 -65z"/>
<path d="M2695 9014 c-109 -16 -215 -44 -215 -55 0 -5 -7 -9 -15 -9 -8 0 -15
-4 -15 -10 0 -5 -11 -10 -25 -10 -27 0 -61 -14 -174 -69 -56 -27 -94 -56 -155
-118 -98 -99 -112 -116 -120 -140 -3 -10 -19 -34 -36 -53 -16 -19 -30 -43 -30
-52 0 -22 -41 -108 -52 -108 -4 0 -8 -5 -8 -12 0 -6 -10 -32 -22 -56 -60 -126
-103 -486 -87 -741 11 -181 79 -429 132 -487 14 -15 28 -39 31 -55 3 -16 14
-37 24 -47 19 -19 32 -42 68 -117 49 -104 120 -186 192 -220 17 -9 32 -22 32
-30 0 -8 7 -15 15 -15 8 0 15 -4 15 -8 0 -5 23 -35 50 -66 28 -31 50 -60 50
-64 0 -4 32 -34 70 -65 39 -32 74 -66 77 -75 8 -24 74 -92 89 -92 7 0 25 -15
41 -32 16 -18 52 -49 81 -68 45 -30 102 -97 102 -119 0 -5 9 -16 21 -27 21
-19 13 -19 -537 -24 l-559 -5 -3 -220 c-5 -329 12 -654 43 -816 32 -174 70
-311 90 -321 8 -5 15 -16 15 -24 0 -17 49 -95 67 -107 6 -4 19 -31 29 -60 29
-90 141 -211 207 -224 16 -3 31 -12 34 -19 3 -8 11 -14 19 -14 8 0 23 -9 34
-20 41 -41 238 -120 343 -137 20 -3 37 -9 37 -13 0 -9 121 -18 350 -27 177 -6
460 11 460 29 0 4 7 8 15 8 24 0 227 69 270 92 39 21 71 46 103 81 9 9 21 17
26 17 15 0 116 81 116 94 0 6 15 27 33 47 17 19 37 46 43 60 39 83 71 142 85
158 22 24 35 50 55 107 9 27 19 51 23 54 9 7 46 161 66 275 37 210 45 680 16
825 -15 71 -51 234 -63 283 -5 20 -12 37 -17 37 -4 0 -20 29 -36 65 -15 36
-30 65 -34 65 -3 0 -13 15 -22 33 -51 107 -65 131 -86 144 -13 9 -23 21 -23
28 0 8 -16 34 -35 59 -19 26 -35 50 -35 55 0 6 -28 36 -62 68 -35 32 -83 80
-108 107 -50 55 -75 79 -207 203 -51 47 -93 92 -93 98 0 7 -11 17 -24 23 -13
6 -64 48 -112 94 -48 46 -104 99 -124 118 -62 59 -182 165 -195 173 -8 4 -24
24 -36 45 -13 20 -40 54 -61 74 -21 20 -38 43 -38 50 0 8 -9 32 -20 53 -30 59
-43 156 -28 206 17 60 48 79 125 79 78 0 98 -10 112 -52 5 -18 13 -135 17
-261 l7 -227 596 2 596 3 -3 165 c-5 233 -48 580 -73 580 -5 0 -9 9 -9 20 0
29 -38 133 -53 145 -13 11 -56 106 -65 145 -7 33 -29 67 -70 110 -18 19 -40
46 -47 60 -8 14 -35 43 -61 65 -27 22 -60 52 -74 66 -44 45 -140 101 -184 107
-22 2 -53 11 -68 18 -15 8 -38 14 -53 14 -14 0 -25 5 -25 10 0 6 -6 10 -14 10
-8 0 -16 4 -18 10 -4 13 -172 47 -290 60 -130 14 -396 11 -503 -6z m267 -3149
c16 -16 39 -41 52 -55 36 -38 96 -175 118 -270 23 -101 34 -275 24 -383 -7
-65 -12 -81 -36 -107 -24 -26 -35 -30 -81 -30 -82 0 -116 17 -142 70 -22 44
-22 54 -25 455 l-3 410 32 -30 c18 -16 45 -43 61 -60z"/>
<path d="M380 2671 c0 -5 -10 -11 -23 -15 -34 -8 -96 -74 -107 -115 -6 -23
-10 -411 -10 -1059 0 -1091 -1 -1061 47 -1109 11 -11 22 -27 26 -37 19 -49
-317 -46 5439 -44 5215 3 5364 4 5391 22 15 10 27 22 27 28 0 5 10 19 21 31
51 53 49 15 49 1109 0 661 -4 1036 -10 1060 -12 40 -75 104 -115 114 -14 3
-25 10 -25 15 0 5 -2226 9 -5355 9 -3129 0 -5355 -4 -5355 -9z m10450 -469
c19 -9 45 -33 58 -52 23 -34 23 -35 20 -325 -3 -322 -4 -324 -71 -365 -31 -20
-66 -20 -1867 -20 -1801 0 -1836 0 -1867 20 -67 41 -68 43 -71 365 -2 276 -2
292 18 323 11 18 34 41 52 52 33 20 55 20 1863 20 1722 0 1832 -1 1865 -18z
m-84 -1072 c40 -20 63 -38 71 -57 7 -15 21 -44 33 -63 29 -50 26 -113 -8 -182
-31 -64 -61 -92 -123 -113 -67 -24 -127 -19 -197 16 -57 28 -64 35 -92 95 -41
90 -40 132 8 214 31 55 46 69 91 93 75 37 138 37 217 -3z"/>
</g>
</svg>
